<?xml version="1.0" encoding="utf-8"?>
<!-- Generator: Adobe Illustrator 26.0.1, SVG Export Plug-In . SVG Version: 6.00 Build 0)  -->
<svg version="1.1" id="Layer_1" xmlns="http://www.w3.org/2000/svg" xmlns:xlink="http://www.w3.org/1999/xlink" x="0px" y="0px"
	 viewBox="0 0 750 398" style="enable-background:new 0 0 750 398;" xml:space="preserve">
<style type="text/css">
	.st0{fill:#452393;}
	.st1{fill:#F87596;}
	.st2{fill:none;stroke:#64D0FF;stroke-width:2;stroke-linecap:round;stroke-linejoin:round;stroke-miterlimit:10;}
	.st3{fill:none;stroke:#663BC9;stroke-width:2;stroke-miterlimit:10;}
	.st4{fill:none;stroke:#FCA4BA;stroke-width:2;stroke-miterlimit:10;}
	.st5{fill:none;stroke:#A183E6;stroke-width:2;stroke-miterlimit:10;}
	.st6{fill:none;stroke:#1FBCD4;stroke-width:2;stroke-miterlimit:10;}
	.st7{fill:#6E5750;}
	.st8{fill-rule:evenodd;clip-rule:evenodd;fill:#6E5750;}
	.st9{fill:none;stroke:#F87596;stroke-width:2;stroke-miterlimit:10;}
	.st10{fill:none;stroke:#BDC0C6;stroke-width:2;}
	.st11{fill:none;stroke:#201C33;stroke-width:2;stroke-linecap:round;stroke-linejoin:round;}
	.st12{fill-rule:evenodd;clip-rule:evenodd;fill:#EBC48E;}
	.st13{opacity:0.8;fill:#3C302D;enable-background:new    ;}
	.st14{fill:#1FBCD4;}
	.st15{fill:none;stroke:#000E48;stroke-width:2;stroke-miterlimit:10;}
	.st16{fill-rule:evenodd;clip-rule:evenodd;fill:#26086B;}
	.st17{opacity:0.4;fill-rule:evenodd;clip-rule:evenodd;fill:#D5866E;enable-background:new    ;}
	.st18{fill-rule:evenodd;clip-rule:evenodd;fill:#1FBCD4;}
	.st19{opacity:0.5;fill-rule:evenodd;clip-rule:evenodd;fill:#D5866E;enable-background:new    ;}
	.st20{fill:#8D8D8D;}
	.st21{fill:#FC3768;}
	.st22{fill:none;stroke:#FC3768;stroke-width:2;stroke-miterlimit:10;}
	.st23{fill:#000E48;}
	.st24{fill:#26086B;}
	.st25{fill:#303030;}
	.st26{opacity:0.2;fill:#222222;enable-background:new    ;}
	.st27{opacity:0.1;fill:#FFFFFF;enable-background:new    ;}
	.st28{fill:#201C33;}
	.st29{opacity:0.6;fill:#D5866E;enable-background:new    ;}
	.st30{fill-rule:evenodd;clip-rule:evenodd;fill:#5A474C;}
	.st31{fill-rule:evenodd;clip-rule:evenodd;fill:#F87596;}
	.st32{fill-rule:evenodd;clip-rule:evenodd;fill:#000E48;}
	.st33{fill:#54423E;}
	.st34{fill:none;stroke:#D8C9FB;stroke-width:2;stroke-miterlimit:10;}
	.st35{fill:#D8C9FB;}
</style>
<rect x="-4.2" y="-7.2" class="st0" width="766.8" height="410"/>
<g id="e77sgt6ue43q68">
	<path class="st1" d="M368.6,331.2c3.8,0,7,2.7,7.6,6.5c0.7,4.2-2.2,8.2-6.4,8.9c-0.4,0.1-0.8,0.1-1.2,0.1c-3.8,0-7-2.7-7.6-6.5
		c-0.3-2,0.2-4.1,1.4-5.8s3-2.8,5-3.1C367.8,331.2,368.2,331.2,368.6,331.2 M368.6,329.2c-0.5,0-1,0-1.6,0.1
		c-5.3,0.9-8.9,5.9-8,11.2c0.8,4.8,4.9,8.2,9.6,8.2c0.5,0,1,0,1.6-0.1c5.3-0.9,8.9-5.9,8-11.2C377.4,332.6,373.3,329.2,368.6,329.2
		L368.6,329.2z"/>
</g>
<path id="e77sgt6ue43q53_00000021838899218602765220000004742160074519926427_" class="st2" d="M564.8,64.1
	c-21.4,0.7-34.6,22.9-24.3,34.1c10.7,11.6,19.1,2.3,16.1-4.1c-5.3-11.8-24.9-10.7-33.3,1.3c-8.4,12-4.2,24.5-4.2,24.5"/>
<path id="e77sgt6ue43q58_00000008849569298816800830000013849918280501658532_" class="st2" d="M439.5,329.9
	c-5.9-3.7-7.7-11.5-4-17.3c3.7-5.9,11.5-7.7,17.3-4c5.9,3.7,7.7,11.5,4,17.3C453.2,331.8,445.4,333.5,439.5,329.9z"/>
<path id="e77sgt6ue43q59_00000168098817018599708530000014151139106513173428_" class="st2" d="M535.1,328.8
	c-0.5-2.9,1.5-5.7,4.5-6.2c2.9-0.5,5.7,1.5,6.2,4.5c0.5,2.9-1.5,5.7-4.5,6.2C538.4,333.7,535.6,331.7,535.1,328.8z"/>
<path id="e77sgt6ue43q64_00000126305325553051241700000009472919057338549651_" class="st3" d="M186.5,195.3c-0.3-3.6,2.4-6.7,5.9-7
	c3.6-0.3,6.7,2.4,7,5.9c0.3,3.6-2.4,6.7-5.9,7C189.9,201.5,186.8,198.9,186.5,195.3z"/>
<path id="e77sgt6ue43q65_00000022520013843031345240000008505197292900478142_" class="st2" d="M533.3,159.3c-3.2,0-5.7-2.6-5.7-5.8
	s2.6-5.8,5.7-5.8c3.2,0,5.7,2.6,5.7,5.8S536.5,159.3,533.3,159.3z"/>
<path id="e77sgt6ue43q70_00000180352709271966434170000006693805350687467687_" class="st2" d="M566,193.8l36.7,12.2"/>
<path class="st4" d="M288.4,211.7c8.8-1.4,15.7,5.2,14.9,12.3c-0.8,7.1,0.4,16.6,11,18.1c10.5,1.5,15.5,7.4,13.9,16.4
	s3.5,13.8,11.3,13.7"/>
<path class="st5" d="M407.4,300.9c0,3.5-2.8,6.3-6.3,6.3s-6.3-2.8-6.3-6.3s2.8-6.3,6.3-6.3S407.4,297.4,407.4,300.9z"/>
<path class="st6" d="M177.2,33.4l17.6,15.4"/>
<path class="st7" d="M50.4,274.1L48,308.7c-3.7,3.6-6.9,10.9-8.7,15.7c-3.8,10.3-6.7,20.3-3.7,30.8c3.1,10.5,24.3,34.6,29.5,44.3
	l-22.6,10.4C31,400.4,18.6,387.3,11.8,377c-3.8-5.8-5.4-12.8-6.1-19.6c-2.8-28.6,18-75.3,30.9-101.8L50.4,274.1z"/>
<path class="st8" d="M245.2,322.4c0,0-39.9-61.5-48.2-70.5c-13.9-15.1-42.6-4.7-42.2,10.8c0.3,13.4,48.7,56.2,64.1,69.1
	c2.3,1.9,18.4,2.9,21.3,1.9L245.2,322.4z"/>
<path class="st8" d="M221.5,226.5c0,0-0.2,39.8-1.9,60.5c-1.8,22.5-14.3,22.8-12.2,28.8c10,29.2,37.6,26.2,41.6,1.7s-6.9-91-6.9-91
	H221.5z"/>
<path class="st9" d="M368.1,387.4L368.1,387.4c102.9,0,186.3-83.4,186.3-186.3S471,14.7,368.1,14.7c-65.8,0-123.6,34.1-156.8,85.6"
	/>
<g>
	<g>
		<path class="st1" d="M271.8,113.5h6.3l8.6,26.5l8.2-26.5h4.4l8.2,26.5l8.6-26.5h6.3L309.8,150h-4.3l-8.4-26l-8.4,26h-4.3
			L271.8,113.5z M345.2,136.5c0,0.6-0.1,1.7-0.2,3.1h-18c0.1,1.9,0.7,3.4,1.9,4.4c1.2,1,2.8,1.5,4.9,1.5c1.4,0,2.5-0.2,3.4-0.7
			s1.5-1.1,2-2.1h5.7c-0.4,2.3-1.6,4.1-3.7,5.5s-4.6,2.2-7.5,2.2c-3.8,0-6.8-1.1-9.1-3.4c-2.2-2.3-3.3-5.4-3.3-9.3
			c0-2.6,0.5-4.8,1.5-6.7s2.4-3.4,4.3-4.5c1.8-1,4-1.6,6.4-1.6c2.3,0,4.3,0.5,6.1,1.5c1.8,1,3.1,2.3,4.1,4.1
			C344.7,132.3,345.2,134.3,345.2,136.5z M339.6,135.3c0-1.9-0.6-3.3-1.6-4.3c-1.1-1-2.6-1.5-4.5-1.5c-2,0-3.5,0.5-4.7,1.6
			c-1.1,1.1-1.7,2.5-1.8,4.2H339.6z M351.2,113.5h5.7V150h-5.7V113.5z M374.9,150.5c-2.5,0-4.6-0.5-6.4-1.6s-3.2-2.6-4.2-4.5
			s-1.5-4.1-1.5-6.6s0.5-4.7,1.5-6.6c1-1.9,2.4-3.4,4.2-4.5c1.8-1.1,4-1.6,6.4-1.6c3.3,0,6,0.8,8,2.5c2,1.7,3.2,3.9,3.5,6.7h-5.7
			c-0.3-1.4-0.9-2.5-1.9-3.2c-0.9-0.7-2.3-1-4-1c-2,0-3.6,0.7-4.7,2s-1.7,3.2-1.7,5.7s0.6,4.4,1.7,5.7s2.7,2,4.7,2
			c3.2,0,5.2-1.3,5.8-4h5.7c-0.3,2.7-1.4,4.9-3.5,6.6C380.9,149.7,378.2,150.5,374.9,150.5z M403.9,150.5c-2.6,0-4.9-0.6-6.8-1.7
			c-1.9-1.1-3.4-2.6-4.5-4.6c-1-1.9-1.5-4.1-1.5-6.5s0.5-4.6,1.5-6.5s2.5-3.5,4.5-4.6c1.9-1.1,4.2-1.7,6.8-1.7
			c2.6,0,4.9,0.6,6.8,1.7s3.4,2.6,4.5,4.6c1,1.9,1.5,4.1,1.5,6.5s-0.5,4.6-1.5,6.5s-2.5,3.5-4.5,4.6
			C408.8,150,406.5,150.5,403.9,150.5z M403.9,145.5c2.2,0,4-0.7,5.2-2.1c1.3-1.4,1.9-3.3,1.9-5.6s-0.6-4.1-1.9-5.6
			c-1.3-1.4-3-2.1-5.2-2.1s-4,0.7-5.2,2.1s-1.9,3.3-1.9,5.6s0.6,4.1,1.9,5.6C399.9,144.8,401.7,145.5,403.9,145.5z M422.7,125.6h5.7
			v3.4c0.6-1.2,1.4-2.1,2.7-2.9c1.2-0.7,2.6-1.1,4.1-1.1c3.9,0,6.4,1.4,7.7,4.3c0.6-1.2,1.6-2.3,2.9-3.1c1.4-0.8,2.9-1.2,4.5-1.2
			c5.8,0,8.7,3.2,8.7,9.5v15.4h-5.7v-14.3c0-2-0.4-3.4-1.1-4.4c-0.8-0.9-1.9-1.4-3.4-1.4c-1.6,0-2.8,0.5-3.7,1.6
			c-0.9,1.1-1.4,2.9-1.4,5.6v12.9H438v-14.3c0-2-0.4-3.4-1.1-4.3c-0.7-0.9-1.8-1.4-3.3-1.4c-1.6,0-2.9,0.5-3.8,1.6s-1.4,2.9-1.4,5.6
			V150h-5.7V125.6z M488.5,136.5c0,0.6-0.1,1.7-0.2,3.1h-18c0.1,1.9,0.7,3.4,1.9,4.4c1.2,1,2.8,1.5,4.9,1.5c1.4,0,2.5-0.2,3.4-0.7
			s1.5-1.1,2-2.1h5.7c-0.4,2.3-1.6,4.1-3.7,5.5s-4.6,2.2-7.5,2.2c-3.8,0-6.8-1.1-9.1-3.4c-2.2-2.3-3.3-5.4-3.3-9.3
			c0-2.6,0.5-4.8,1.5-6.7s2.4-3.4,4.3-4.5c1.8-1,4-1.6,6.4-1.6c2.3,0,4.3,0.5,6.1,1.5c1.8,1,3.1,2.3,4.1,4.1
			C488,132.3,488.5,134.3,488.5,136.5z M483,135.3c0-1.9-0.6-3.3-1.6-4.3c-1.1-1-2.6-1.5-4.5-1.5c-2,0-3.5,0.5-4.7,1.6
			c-1.1,1.1-1.7,2.5-1.8,4.2H483z M495.4,113.5h5.7v24.8h-5.7V113.5z M498.2,150.3c-1.2,0-2.2-0.4-3.1-1.3c-0.9-0.9-1.3-1.9-1.3-3.1
			s0.4-2.2,1.3-3.1c0.9-0.9,1.9-1.3,3.1-1.3s2.3,0.4,3.1,1.3c0.9,0.9,1.3,1.9,1.3,3.1s-0.4,2.3-1.3,3.1
			C500.4,149.9,499.4,150.3,498.2,150.3z"/>
	</g>
</g>
<path class="st10" d="M168,46.2c0,2.8-2.2,5-5,5s-5-2.2-5-5s2.2-5,5-5C165.7,41.2,168,43.4,168,46.2z"/>
<path class="st11" d="M105.5,396.6c7-1.9,20.1,0.4,23.6,6.2"/>
<path class="st8" d="M221.5,226.5c-1-5.2-1-13.4-4.1-19.6c-3.1-6.2-6.2-16.5-1-31.9c4.1-12.4,11.3-11.3,9.3-6.2
	c-0.9,2.1-5.4,13.8-2.1,15.5c4.1,2.1,15.5-16.5,15.5-16.5l14.1-24.1c1.4-2.7,4.5-1.6,3.2,1.9l-11.1,24.3c0,0,15.5-21.6,17.5-24.7
	c2.1-3.1,5.2,0,3.1,3.1c-1.3,1.9-14.4,24.7-14.4,24.7s15.5-20.6,17.5-22.7c2.1-2.1,4.1-1,3.1,2.1s-15.5,25.8-15.5,25.8
	s13.9-13.9,16.5-16.5c2.1-2.1,5.2-1,3.1,3.1s-27.8,38.1-27.8,38.1s-8.2,13.4-6.2,23.7S221.5,226.5,221.5,226.5"/>
<path class="st12" d="M491.7,293.4c0,0-13.4,16.1-15.6,7.5c-2.2-8.5-13.3-15.6-13.3-15.6s-31.9-16.3-34.9-18.6
	c-3.1-2.4-1.1-4.3,1.2-3.5c2.9,1,18.5,6.4,18.5,6.4s-19.2-11.9-21.1-13.8c-1.9-2-0.7-3.5,1.6-2.7c2.3,0.8,21.5,10.7,21.5,10.7
	s-18.3-12.4-19.9-13.4c-2.7-1.6-1.5-5,1.2-3.5c2.7,1.6,22.3,12.3,22.3,12.3L435.8,245c-2.2-2.2-0.3-4.1,1.7-2.6l19.5,13.1
	c0,0,15.3,9.9,17.7,6.8c1.9-2.5-5.8-9.6-7.2-10.9c-3.4-3.1,1.6-6.6,9.3,1.3c9.5,9.8,11,18.7,10.9,24.5S490.6,289.1,491.7,293.4"/>
<path class="st13" d="M242.1,170.4L258,181c0.4,0.3,1,0.2,1.2-0.2c0.3-0.4,0.2-1-0.2-1.2L243.1,169c-0.4-0.3-1-0.2-1.2,0.2
	C241.6,169.5,241.7,170.1,242.1,170.4z"/>
<path class="st14" d="M605.8,111.5c0.7-3.4,2.2-6.6,4.3-9.4s4.8-5,7.9-6.6c10.7-5.5,22.8-0.1,26.1,5.5s2.7,8.4,8.1,10.4
	c5.3,2.1,9.3-2.2,18.8,3.2c9.5,5.4,13.6,11.4,13.2,21.7c-0.4,10.3-4,11.7-1.4,16.7c2.6,5.1,9.3,3.8,14.5,11.7
	c5.2,7.8,4.9,15.9,1.2,22.8c-3.7,6.9-2.1,9.6,2.1,12.5c4.1,2.9,12.1,1.5,15.2,10.3c3.2,8.8,0.4,13.3-2.5,17.4c-2.9,4.1-3,8-0.5,11
	s5.1,7.4-0.5,13c-5.6,5.6-6.5,7-4.7,10.7c1.8,3.7,4.4,12.5-2.1,16.5L578,238.5c0,0-9.9-6.4-6.8-13.8c3.1-7.4,6.8-11.5,3.1-17.1
	s-14.2-6.8-17.7-15.4c-3.5-8.6,6.2-14.4,4.1-20.8c-2.1-6.4-10.3-8.4-9.5-18.7c0.8-9.3,6.8-14.2,13-17.1c6.2-2.9,6.3-8,8.2-17.3
	c2.3-10.7,16.5-16.9,23.1-13.6C599.3,106.6,602.7,108.8,605.8,111.5L605.8,111.5z"/>
<path class="st15" d="M615,118.7c4.7,3.5,6.6,3.3,14.1,3.5c7.6,0.2,11.3,4.3,13.5,8.6c2.3,4.3,9.2,6.4,10.3,11.5
	c1,5.1-2.9,12.1,0.4,17.8c3.3,5.8,12.7,8.8,12.7,20.1s-7.6,15-6,23.6s13.5,14.4,11.3,24.6c-2.3,10.3-6.8,15.8-6.8,15.8"/>
<path class="st15" d="M677.3,216.6c3.9,4.9,7.2,11.3,4.7,15.8s0.6,10.5,2.5,14.6c1.8,4.1-1.2,8.8-1.2,8.8"/>
<path class="st15" d="M601.4,117.7c-6-0.4-12.6-1.9-16.2,3.6c-3.6,5.5-0.9,9.8-5.1,16c-4.3,6.2-9,6-14.1,11.1s-5.5,11.3-1.7,16
	s8.5,11.3,5.1,18.8s-3.8,10.7,3.6,14.7c7.5,4,16.8,12.8,11.9,25.4"/>
<path class="st15" d="M599,126.7c-5.3,0.6-7.7,4.9-8.7,11.5c-1.1,6.6-10,12.6-13.2,13.4"/>
<path class="st15" d="M580,179c-1.3,5.1-2.8,10.9,0.8,13s9.2,5.1,10.2,10"/>
<path id="Fill-8_00000168799223613316503910000010759511495355775375_" class="st12" d="M523.6,333.2c3.7-4.6,7.2-9.4,10.4-14.3
	c2.5-3.9,4.7-9,9.1-11.1c10.1-4.9,13.7,10.4,13.7,17.5c0,6.3-1.7,12.5-3.8,18.4c-4.7,13.2-7.5,29.9-21,33.6c-5.6,1.5-11.6,4-14-1.3
	c-1.3-2.8-0.9-6.1-0.4-9.2c0.7-4.9-5-16.5-3-21C516.8,341.2,520.3,337.3,523.6,333.2"/>
<path class="st12" d="M533.8,370c1.4-3.8,1.9-8.6,1.2-14.3c-0.2-2-1.7-2.6-3.9-3.5c0-0.2-0.1-0.4-0.1-0.7c-1.8-11-17.8-19.5-22.4-27
	c-1-1.7-3.5-5.8-6.7-10.8c-5.6-10.9-10.2-20.3-10.2-20.3l-2.4,1.2c-2.7-3.8-5-6.7-6.3-7.8l-1.5,11.5l-5.3,2.6c0,0,4.7,16,11,33.3
	c3.7,12.5,7.7,26.4,9.6,31.5c1,2.8,2.2,5.5,4.1,7.8c2.7,3.1,6.7,4.8,10.6,6.4c5.6,2.3,11.8,5.6,17.5,3.7c2.4-0.8,9.6-10.3,10.4-11.2
	C540,371.5,535.5,370.9,533.8,370z"/>
<path id="Fill-12_00000150092475760408135220000000232682357425488279_" class="st16" d="M590.4,234.9c-0.7,0.2,12-1.5,17.7-2.9
	c10.6-2.6,21.5-1.7,32.4-1.8s22.1-1,30.6,5.9c6.2,5,10.5,12,13.8,19.2c2.4,5.2,4.3,10.6,5.1,16.3c1.2,7.8,0.2,15.8-0.7,23.6
	c-2.2,18.2-4.3,36.4-6.5,54.6c-0.7,5.8-1.4,11.6-0.9,17.4c0.3,4.4,1.3,9-0.4,13.1c-2.5,6.2-9.9,8.7-16.4,10.3
	c-30.9,7.4-55.1,10.7-84.5-1.3c-2.6-1.1-5.2-2.3-7.2-4.3c-4-4.2-4.1-10.7-3.9-16.5c0.3-7.2-3.5-17.3-2.8-24.5
	c-4.1,3.1-12.3,12.4-14,17.3c-1.2,3.6-4,6.2-7,8.6c-1.7,1.3-4.3,0.6-4.8-1.5c-2.8-10.5-3.9-15.9-7.2-20.8
	c-3.1-4.7-9.5-7.8-11.5-11.3c-1.2-2.1,1.4-5.9,3-7.7c0.7-0.9,1.3-1.7,1.2-2c-0.4-1.1-0.8-2.2-0.5-3.3c0.7-4,7.5-4.2,8.3-8.1
	c0.4-1.7-0.6-3.5-0.4-5.2c0.3-2.1,2.4-3.4,4.1-4.6c8.3-5.9,13.3-15.3,17-24.8s6.5-19.4,11.8-28.1C571.9,243.6,580.3,236,590.4,234.9
	z"/>
<path id="Stroke-16_00000171684083848451631530000007760197746203731880_" class="st15" d="M535.4,338.4c-1.5-3.4-3.9-6.3-6.8-8.5"
	/>
<path id="Stroke-18_00000033331154079063686110000005918683980681021609_" class="st15" d="M567,275.8c-1.6-4.5-3-9-4.3-13.6"/>
<path id="Stroke-20_00000075150202220890607880000015347985500919747206_" class="st15" d="M634.3,255.3c-4.7,4.5-13.5,12.6-18,17
	c-1,1-2.1,1.9-3.5,2.2c-2.9,0.5-5.2-2.5-6.4-5.2c-5.5-11.9-1.6-25.8,2.4-38.2"/>
<path id="Fill-22_00000072961364191346697530000012047471448786354356_" class="st12" d="M616.2,240l-7.9,12.6
	c2.8-15.1-3.9-76.9,25.9-69.9c5.3,1.2,7.6-31.5,11.6-27.8c8.4,7.7,4,61.8,6.1,72.2c1.4,6.8-1.4,6.8-1.4,7.3c0.3,4.5,2.2,0.8,1.4,4.8
	c-0.4,2-4.9,0.9-6.1,2.5c-1.2,1.5-4.6,2.5-6.3,3.5c-8.4,5-16.3,11-23.4,17.8c-0.6,0.6-1.3,1.3-2.2,1.3c-1.2,0.1-2.2-0.9-2.9-2
	c-1.8-2.9-2.4-6.3-2.8-9.7"/>
<path id="Fill-24_00000084519337441352029010000006901341666783704468_" class="st17" d="M655.3,172c-3.4,17.2-20,87-45.1,48.3
	c-7.1-11-8.2-37.7,0.4-47.8C618.1,163.6,659.9,148.3,655.3,172"/>
<path id="Fill-26_00000006705412302548786670000017950488552197391545_" class="st12" d="M598.2,130c6.2-9.9,14.2-20.8,20.4-22
	c6.9-1.3,14-0.1,20.7,1.7c6.9,1.9,13.9,4.6,19,9.7c6.4,6.5,8.9,16.1,8.4,25.2c-0.5,9.1-8.6,26.2-12.3,34.5
	c-7.7,17.3-13,25.5-26.9,38.5c-2.7,2.5-5.7,5-9.4,5.6c-3.8,0.7-7.6-0.8-10.9-2.8c-11.2-6.7-17.5-19.6-19.3-32.4
	c-0.7-5.2-1.1-10.8-1.2-16.5C586.3,156.8,590.5,142.4,598.2,130"/>
<path id="Fill-40_00000129912965073428316150000011687218669871125152_" class="st17" d="M615.7,127.1c14.7-1.4,33.5,10.3,34.6,26.2
	c1.1,17.4-3.3,8.9-10.3,10.3c-19.1,3.8-42.3-11.8-41.4-32.7"/>
<path id="Fill-42_00000021112389825600935720000003985991515388260492_" class="st18" d="M605.2,115.3c-0.6-8,5.8-12.8,12.4-17.2
	c5.5-1.4,11.4-0.1,16.5,2.3c5.1,2.5,13.3,6.1,17.7,9.6c3.8,3,10.8,9.2,11.8,10.9c0.7,1.2,3.7,5,4.1,6.3c3.2,9.7-2.3,19.3,0.9,29
	c0.3,1,0.6,2,0.6,3c-0.1,1.3-0.7,2.4-1.3,3.6c-2.6,4.7-6.7,4-9.3,8.7c-7.5-3.2-10.1,7-13.1-0.6c-8.7-22.4-53.5-10-49.7-39.2
	c1.7-13.6,8.9-16.5,14.6-29"/>
<path id="Fill-48_00000121999523048548473260000013270188827361809803_" class="st12" d="M559.9,390.3
	c15.7-10.3,33.9-15.9,52.1-19.8c14.9-3.2,36.3-12.2,49.6-1.4c5.9,4.8,14.3,14.6,14.4,22.2c0,0.8,0,1.7-0.5,2.4
	c-0.6,0.8-72.6,7.2-83.5,10.6c-10.9,3.5-21.7,11.8-30,19.8c-3.3,3.2-6.2,6.8-9.8,9.6c-5.4,4-12.3,5.9-19,5.1c-2-0.2-4.1-0.8-5.4-2.2
	c-1.3-1.4-1.7-3.3-1.7-5.2c0-4.5,2.4-8.7,4.9-12.5C538.6,407.5,548.5,397.7,559.9,390.3"/>
<path id="Fill-51_00000142883102807379760730000016945544282062763190_" class="st19" d="M666.3,391.8c-5.2-2.6-8.4-12.3-11.1-19.5
	c-2.4-6.4-8-8.3-12-9.6c-0.5-0.2-0.6-0.8-0.1-1.1c4.8-2.1,2.5-0.2,5.2-0.8c8-1.8,18.2,4,23.6,9.6c1.5,1.6,2.9,3.3,3.8,5.4
	c1.6,3.7,1.3,8,0.8,12.1c-0.2,2-0.7,4.2-2.8,4.9C673,393,668.7,393,666.3,391.8"/>
<path id="Stroke-57_00000176033413741538214790000002925939524128404132_" class="st15" d="M616.4,350.3
	c-5.1-16.7-12.7-27.3-21.3-46"/>
<path id="Fill-71_00000074405657296357534080000011973449655517904272_" class="st16" d="M633.5,265.3c2.8-8.5,0.4-16.8,4.7-24.7
	c2.1-3.9,5.9-9.2,10-10.7c3.3-1.2,9.4-2,12.8-1c10.9,3.2,17.9,12.1,23.6,22.1c3,5.2,4.4,11.2,5.7,17.1c6.8,31,10.6,62.7,11.4,94.5
	c0.1,4.5,0,9.6-3,12.9c-2,2.2-5.1,3.6-5.5,6.5c-0.2,1.5,0.4,3,0,4.5c-1.1,3.8-7,2.3-10.6,4c-2.4,1.1-4,3.8-6.6,4.2
	c-3.7,0.5-5.8-4-7-7.6c-1.9-5.8-4.5-11.5-8.6-16s-10-7.6-16-7.3c-2,0.1-4.5,0.3-5.5-1.5c-1-2,1.1-4.2,3.2-4.9
	c2.1-0.6,4.5-0.5,6.3-1.9c1-4-1.6-3.4-3.6-7c-1.6-2.9-0.3-6.6,0.9-9.8c5.9-16.2,1.7-37.2-5.3-53"/>
<path id="Stroke-74_00000017502003179728797490000002247054043221189262_" class="st15" d="M660.7,228.8c-4.7-0.8-8.5-0.3-12.7,1.8
	c-1.5,0.7-2.7,1.6-3.8,2.5c-3,2.4-4.9,5.4-6.5,8.3c-4.4,8-3.1,21.1-6,29.7"/>
<path id="Stroke-86_00000058549023368237057800000006711225194973988772_" class="st15" d="M563,329c-0.4-1.7-0.7-3.4-1.1-5.2
	c-0.8-3.7-1.5-7.4-1.6-11.2c-0.2-7.1,5.4-14,6.7-21c2.5-12.7,2.4-26-0.4-38.6"/>
<path id="Stroke-88_00000048481883220633428020000015078095543716806032_" class="st15" d="M681.2,375c-4.7-8.9-9-13.7-16.2-17"/>
<path id="Stroke-90_00000133522971334461513380000008346912522059795366_" class="st15" d="M636.9,274.5c1.3-5.3,1.9-10.8,1.7-16.2"
	/>
<path class="st15" d="M612.5,112c2.5-4.5,13.1-13.1,21.1-8.4s4.9,11.9,15.6,15.4c10.7,3.5,17.4-0.8,24,7.2s1.6,14.4,1.6,21.9
	s2.5,12.5,8,16.2s11.5,7.4,9,15.6c-2.5,8.2-5.3,17.2-0.4,23.2c4.9,6,15.5,4.9,16.6,12.3c1.1,7.4-3.5,7.8-4.3,15.8s6.4,9,4.3,14.2"/>
<path class="st15" d="M628.1,114.6c6.5,10.6,24,13.5,24,13.5c6.8,1,13.1,4.5,12.1,13.7c-1.1,9.2-3.1,13.1,2.3,18.3
	c5.3,5.1,14.6,13.7,11.9,22.6c-2.7,8.8-8,15.6-5.3,22.4"/>
<path class="st15" d="M682.3,203.2c-0.2,5.5,4.3,12.3,9.2,14.6s3.7,6.8,1.6,11.7c-2.1,4.9,0.2,10.9,3.5,15.8
	c3.3,4.9-0.4,8.2-0.6,11.3c-0.2,3.1,1.2,8.6,1.2,8.6"/>
<path id="Fill-55_00000010276242262428666210000015392068748761692818_" class="st12" d="M666.7,169.9c0.4,6.1-2.4,15.7-9.1,18.6
	c-9.1,3.9-8.2-8.2-7.4-12.6c0.7-4,2-8.1,4.9-11.2c1.3-1.3,2.9-2.5,4.9-2.6s4,1.1,5.1,2.6C666.1,166.1,666.5,168,666.7,169.9"/>
<path class="st15" d="M606.3,124.9c0.1,7,0.1,14.9,5.4,16.4c5.4,1.5,13.4,3.5,16.4,9.4"/>
<path class="st15" d="M654.2,155.2c-7.3-1.7-15.2-5.2-16.3-11.3s-8.4-9.4-13.2-11.8c-4.8-2.5-5.4-9.2-5.4-9.2"/>
<g transform="translate(15.23 18.731)">
	<g>
		<g>
			<path class="st1" d="M566.1,390c2,1.9,6.7,2.6,9.4,2c1.2-0.3,5.3-0.9,8-3.9c3.2-3,3.5-9.2,3.2-13.3c-0.6-8.1-8.4-24.8-19.2-21.1
				c-3,1-6.7,2.9-9.2,4.9l0.1-0.1l-0.4,0.3c-0.6,0.6-0.9,1.3-1.2,2.1c-2.1,5.1-1.6,10.9,0.1,16C558.9,381.9,562.2,386.4,566.1,390z
				 M571.7,382.8c-3.7-5.8-7.2-12.3-7-19.3c0-1.4,0.2-2.7,0.8-3.9c2.2,1.7,4.3,4.1,5.3,6c2.8,4.6,4.2,10.1,4.1,15.5
				c0,0.5-0.4,2.8-1,5C573.2,384.9,572.4,383.9,571.7,382.8z"/>
		</g>
	</g>
	<path class="st20" d="M574,385.9c-0.9-1-1.6-2.1-2.3-3.2c-3.7-5.8-7.2-12.3-7-19.3c0-1.4,0.2-2.7,0.8-3.9l0,0c-3.1-1.8-6.4-1.5-7-1
		l0.1-0.1l-0.4,0.3c-0.6,0.6-0.9,1.3-1.2,2.1c-2.1,5.1-1.6,10.9,0.1,16c1.8,5.1,5.1,9.3,9.1,13C568.3,391.7,572,390.7,574,385.9z"/>
	<g>
		<path class="st21" d="M574,385.9c-0.9-1-1.6-2.1-2.3-3.2c-3.7-5.8-7.2-12.3-7-19.3c0-1.4,0.2-2.7,0.8-3.9l0,0
			c-3.1-1.8-6.4-1.5-7-1l0.1-0.1l-0.4,0.3c-0.6,0.6-0.9,1.3-1.2,2.1c-2.1,5.1-1.6,10.9,0.1,16c1.8,5.1,5.1,9.3,9.1,13
			C568.3,391.7,572,390.7,574,385.9z"/>
	</g>
	<path class="st22" d="M570.4,387.6c-0.5-0.4-0.9-0.9-1.2-1.5 M567.2,383.1c-0.4-0.5-0.8-1-1-1.5 M564,378.3
		c-0.3-0.5-0.5-1.1-0.7-1.6"/>
	<path class="st22" d="M564.9,359.5c1.9,1.2,3.5,2.7,4.9,4.3c0.6,0.7,1.2,1.5,1.8,2.2c0.2,0.3,0.5,0.6,0.6,0.9
		c0.2,0.6,0.3,1.2,0.4,1.9c0.3,1.1,0.5,2.2,0.8,3.3c0.5,2.2,1.1,4.4,1.6,6.5c0.2,1,0.3,1.6,0.2,2.5c-0.2,2.2-0.6,4.5-1.8,6.4
		c-1.4,2.3-4.2,3.7-6.5,2.2c-2-1.3-4.3-4.3-5.9-6.5c-2.1-3-6.6-13.1-4.6-20c0.4-1.4,1.1-2.9,2.1-3.9c1.2-1.1,2.8-1.3,4.3-0.8
		C563.6,358.8,564.3,359.1,564.9,359.5z"/>
	<path class="st23" d="M589.5,371.8c-2.5-10.4-8.2-14-13.3-12.6c-5.2,1.4-8,7.8-2.8,18.8C578,387.6,593.1,386.7,589.5,371.8z"/>
	<path class="st24" d="M589.9,371.6c-2.4-9.8-7.7-13.1-12.5-11.9c-5,1.3-7.6,7.3-2.6,17.7C579,386.4,593.2,385.6,589.9,371.6z"/>
	<g>
		<path class="st1" d="M561.4,365.2c-0.3,0.1-1.4,0.5-1.9,0.7s-3.2,1-3.9,1c-0.2,0-0.4,0-0.5,0.1c-0.2,0.2-0.1,0.6,0,0.8
			c0.3,0.7,0.8,1.3,1.4,1.6c0.4,0.2,0.8,0.2,1.2,0.2c0.5,0,1,0.1,1.6,0c1.1-0.1,2.1-0.6,3-1.1c0.7-0.4,2.3,0.2,2.7-0.5
			c0.3-0.5-0.4-2.3-0.6-2.9c0-0.1-0.2-0.3-0.2-0.4s0.4,0.2,0.4,0.1c0-0.2-0.1-1-0.1-1s-1.4,0.7-1.6,0.8
			C562.5,364.7,561.9,365,561.4,365.2z M562.5,372.1c-0.3,0.2-1.3,0.6-1.8,0.9c-0.5,0.2-3.1,1.4-3.7,1.4c-0.2,0-0.3,0-0.5,0.2
			s0,0.6,0.1,0.8c0.4,0.6,0.9,1.2,1.6,1.4c0.4,0.1,0.8,0.1,1.2,0.1c0.5,0,1-0.1,1.5-0.2c1.1-0.2,2-0.8,2.9-1.5
			c0.6-0.5,1.2-1.1,1.5-1.8c0.3-0.6,0.3-1.3,0.1-1.8c0-0.1-0.2-0.3-0.2-0.4s0.4,0.1,0.4,0c0-0.2-0.2-1-0.2-1s-1.3,0.8-1.5,1
			C563.5,371.5,563,371.8,562.5,372.1z"/>
	</g>
	<path class="st25" d="M555.3,370.8c0.2,0.2,1.5,0.8,2,0.8c1.7,0.1,5.6-2.4,7.1-3.2c2.5-1.3,1.8-1.6,1.5-3.6
		c-0.1-0.4-0.3-0.6-0.7-0.7h-0.1c-0.2,0-0.4,0-0.5,0.1c-2.1,1.3-4.1,2.1-6.3,2.8c-1.1,0.4-2.5-0.2-2.8-0.2c-0.1,0-0.2,0-0.3,0.1
		c-0.2,0.1-0.4,0.4-0.4,0.7c0,0.3,0.1,2.2,0.2,2.8c0,0.1,0,0.1,0.1,0.2C555.1,370.7,555.2,370.8,555.3,370.8z M557.6,379
		c0.3,0.1,0.9,0.4,1.4,0.3c1.8-0.2,5.7-2.8,7-3.8c2.2-1.7,1.8-2.7,1-4.6c-0.1-0.3-0.5-0.6-0.9-0.6H566c-0.2,0-0.4,0.1-0.5,0.2
		c-1.7,1.7-4.1,2.9-6.3,4c-1,0.5-2.3,0.5-2.6,0.5c-0.1,0-0.2,0.1-0.3,0.1c-0.2,0.2-0.3,0.5-0.2,0.8c0,0.3,0.8,2.2,1.1,2.8
		c0,0.1,0,0.1,0.1,0.2C557.4,378.9,557.5,378.9,557.6,379z"/>
	<path class="st26" d="M555.3,370.8c0.2,0.2,1.5,0.8,2,0.8c1.7,0.1,5.6-2.4,7.1-3.2c2.5-1.3,1.8-1.6,1.5-3.6
		c-0.1-0.4-0.3-0.6-0.7-0.7h-0.1c-0.2,0-0.4,0-0.5,0.1c-2.1,1.3-4.1,2.1-6.3,2.8c-1.1,0.4-2.5-0.2-2.8-0.2c-0.1,0-0.2,0-0.3,0.1
		c-0.2,0.1-0.4,0.4-0.4,0.7c0,0.3,0.1,2.2,0.2,2.8c0,0.1,0,0.1,0.1,0.2C555.1,370.7,555.2,370.8,555.3,370.8z"/>
	<path class="st22" d="M556.8,368.4c0,0.7,0.1,1.3,0.1,2"/>
	<path class="st26" d="M557.6,379c0.3,0.1,0.9,0.4,1.4,0.3c1.8-0.2,5.7-2.8,7-3.8c2.2-1.7,1.8-2.7,1-4.6c-0.1-0.3-0.5-0.6-0.9-0.6
		H566c-0.2,0-0.4,0.1-0.5,0.2c-1.7,1.7-4.1,2.9-6.3,4c-1,0.5-2.3,0.5-2.6,0.5c-0.1,0-0.2,0.1-0.3,0.1c-0.2,0.2-0.3,0.5-0.2,0.8
		c0,0.3,0.8,2.2,1.1,2.8c0,0.1,0,0.1,0.1,0.2C557.4,378.9,557.5,378.9,557.6,379z"/>
	<path class="st22" d="M558.4,376.3c0.2,0.7,0.4,1.3,0.6,2"/>
	<path class="st22" d="M582.1,370.3l-5.7-3.2"/>
	<path class="st22" d="M584.7,378.7c-1.6-4.8-2.4-8.6-2.4-8.6s3.5-0.5,4.4-0.8"/>
	<path class="st22" d="M570.6,365.5c-0.2,1.4-0.2,2.2,0,3.2 M571,372c0.2,1.2,0.9,2.8,1.1,3.3 M573.3,377.8c0.5,1.3,1.5,2.6,2.2,3.4
		"/>
	<path class="st27" d="M584,374.7c-2,0.5-7.2-0.1-7,2.8c0.2,3,6,5.5,8.8,4c1.8-0.9,4.1-4.8,2.9-6.7
		C587.2,372.5,586.2,374.2,584,374.7z"/>
	<path class="st22" d="M578.1,357c-3.8,0.9-6.3,2.3-8.7,3.7"/>
</g>
<path class="st12" d="M582.6,383.7c-1.4-1.1-1.8-2.8-2.8-4.3c-6.9,2.8-14.3,6.6-20.6,10.6c-11.4,7.5-21.4,17.3-28.9,28.6
	c-2.5,3.8-4.9,8-4.9,12.5c0,1.9,0.4,3.8,1.7,5.2c1.4,1.5,3.4,2,5.4,2.2c6.7,0.8,13.7-1.1,19-5.1c3.7-2.8,6.5-6.4,9.8-9.6
	c7.4-7.2,17-14.6,26.8-18.6l1-2.6c-0.7-1.5-1.4-3-2-4.5C582.7,395.2,582.5,389.1,582.6,383.7z"/>
<g>
	<path class="st22" d="M699.7,113.9l13-7 M694.7,101.9l12-12 M685.7,92.9l9-15"/>
</g>
<path class="st28" d="M597.2,182.1c-0.9,0.1-1.4-0.5-1.5-1.8s0.3-2,1.2-2.1s1.4,0.5,1.5,1.8C598.4,181.3,598,182,597.2,182.1z"/>
<path class="st28" d="M628.2,180.9c-0.9,0.1-1.4-0.5-1.5-1.8s0.3-2,1.2-2.1s1.4,0.5,1.5,1.8C629.5,180.1,629.1,180.8,628.2,180.9z"
	/>
<path class="st15" d="M589.5,168.5c4.9-3.2,12.3-3,16.4-1.6"/>
<path class="st15" d="M620.6,166.6c4.2-2.6,9.8-2.8,13.8-1.1"/>
<path class="st15" d="M609.6,179.2c-1.1,3.3-2.5,6.5-4.3,9.4l5.4,3.3"/>
<g>
	<path class="st1" d="M592.5,196.5c-2.3,0.4-3.8-1.2-4.3-4.6c-0.5-3.4,0.4-5.3,2.7-5.7s3.8,1.2,4.3,4.6
		C595.7,194.2,594.8,196.1,592.5,196.5z"/>
</g>
<g>
	<path class="st1" d="M630.6,195.4c-2.3-0.4-3.2-2.4-2.5-5.7c0.6-3.4,2.1-4.9,4.5-4.5c2.3,0.4,3.2,2.4,2.5,5.7
		C634.4,194.3,632.9,195.8,630.6,195.4z"/>
</g>
<path class="st9" d="M622.8,200.8c-0.6,1.9-4.7,7.4-11,7.1c-5.8-0.6-9-4.1-10.4-7"/>
<g>
	<g>
		<polygon class="st14" points="369.4,94.4 348,50.5 390.8,50.5 		"/>
		<polygon class="st14" points="418.7,92.1 389.6,50.6 432,46.7 		"/>
		<polygon class="st14" points="469.8,84.4 431.6,46.8 472.5,38 		"/>
		<polygon class="st14" points="513.7,73.6 471.2,38.4 511,27.3 		"/>
		<polygon class="st14" points="224,73.6 266.4,38.4 226.6,27.3 		"/>
		<polygon class="st14" points="318.9,92.1 348,50.6 305.6,46.7 		"/>
		<polygon class="st14" points="267.8,84.4 306,46.8 265.1,38 		"/>
	</g>
	<line class="st15" x1="224" y1="73.6" x2="266.1" y2="38.7"/>
	<line class="st15" x1="267.8" y1="84.4" x2="306" y2="46.8"/>
	<line class="st15" x1="348" y1="50.6" x2="318.9" y2="92.1"/>
	<line class="st15" x1="390.2" y1="50.6" x2="369.1" y2="94.4"/>
	<line class="st15" x1="418.7" y1="92.1" x2="431.6" y2="46.8"/>
	<line class="st15" x1="472.2" y1="38.4" x2="469.8" y2="84.4"/>
	<line class="st15" x1="511" y1="27.3" x2="513.7" y2="73.6"/>
</g>
<path class="st29" d="M456.6,257.5c-0.3-0.2-0.8,0-0.9,0.3l-6.9,13.2c-0.2,0.3,0,0.8,0.3,0.9c0.3,0.2,0.8,0,0.9-0.3l6.9-13.2
	C457.1,258.1,457,257.7,456.6,257.5z"/>
<path class="st9" d="M479,313.6c1.6-3,15.1-8.7,19.3-9 M480.5,315c-8.6-4,22.3-17.2,17.6-9.2 M478.3,310c-8.6-4,22.3-17.2,17.6-9.2
	 M477.6,308.3c-8.6-4,22.3-17.2,17.6-9.2 M476.9,306.7c-8.6-4,22.3-17.2,17.6-9.2 M479.8,313.3c-8.6-4,22.3-17.2,17.6-9.2"/>
<path class="st30" d="M212.3,272.8c-2.1-3.1-4.1-6-6-8.6l-36.4,9.1c0,0-0.3,5.3,0.1,12.4c8.7,9.6,19.9,20.3,29.7,29.2
	c0.7-5.6-1.5-13.1-1.5-17.8C198.2,282,206.2,274.7,212.3,272.8z"/>
<path class="st30" d="M51.9,301.6c-0.1-0.4-0.1-0.8-0.1-1.1c0,0,0,0,0,0c0-7.6-7.1-11.8-11.4-17.3c-3.3-4.2-6.4-8.5-9.5-12.8
	l-8.9,17.8l22,25l8.5-10.1C52.1,302.6,52,302.1,51.9,301.6z"/>
<g transform="translate(19 163.01)">
	<g id="guy-k_00000017475955759406943980000008496967353897004721_">
		<path class="st31" d="M44.1,66.3c-10.3,2.5-19,9.4-23.7,18.8l0,0L4.9,116.2l25.7,29.2l13.3-15.9v132.8l124.9-0.9l-0.9-117.8
			c0,0,5.2,2.4,4.4-3.5l0,0c-1.8-13.3,7.8-35.8,23.4-32.7l0,0c4.1,0.8-4.8-6.3-12.1-16.4l0,0c-6.6-9.1-13.7-17.9-24.4-21.5l0,0
			l-53.4-18L44.1,66.3z"/>
	</g>
</g>
<g>
	<path class="st21" d="M95.4,228.2c-3.2,9.4-1.2,17.2,5,22.7c5.4,4.8,13.8,7.4,22.6,7.3s16.8-3.1,21.6-8.2c5.5-5.9,6.4-14.1,1.9-24
		c-0.2-0.4-0.7-0.6-1.2-0.4c-0.4,0.2-0.6,0.7-0.4,1.2c4.2,9.2,3.4,16.7-1.6,22.1c-4.4,4.7-12,7.5-20.3,7.6s-16.3-2.3-21.4-6.8
		c-5.7-5-7.5-12.1-4.5-20.8c0.2-0.5-0.1-1-0.6-1.1C96.1,227.5,95.6,227.7,95.4,228.2z"/>
</g>
<g>
	<path class="st21" d="M52.4,251.3c0.1,2.9,0.4,6,0.8,9.3c0.8,6.1,2,12.5,3.5,19.1c0.9,4,2,7.9,3,11.4c0.4,1.2,0.7,2.3,1,3.3
		c0.1,0.3,0.2,0.6,0.3,0.9c0,0.2,0.1,0.3,0.1,0.3c0.2,0.5,0.7,0.7,1.1,0.6c0.5-0.2,0.7-0.7,0.6-1.1c0,0,0-0.1-0.1-0.3
		c-0.1-0.2-0.2-0.5-0.3-0.9c-0.3-1-0.6-2.1-1-3.3c-1-3.5-2-7.3-3-11.3c-1.5-6.6-2.7-12.9-3.5-18.9c-0.4-3.2-0.7-6.3-0.8-9.1
		c0-0.5-0.4-0.9-0.9-0.9C52.8,250.4,52.4,250.8,52.4,251.3z"/>
</g>
<g>
	<path class="st21" d="M185,237.9c0.3,5.4,0.7,17.7,1.1,34.7c0.2,8.3,0.3,17.1,0.5,26c0.1,3.1,0.1,6,0.1,8.6c0,0.9,0,1.7,0,2.4
		c0,0.4,0,0.7,0,0.8c0,0.5,0.4,0.9,0.9,0.9s0.9-0.4,0.9-0.9c0-0.1,0-0.4,0-0.9c0-0.7,0-1.5,0-2.4c0-2.6-0.1-5.5-0.1-8.6
		c-0.2-8.9-0.3-17.7-0.5-26c-0.4-17.1-0.7-29.3-1.1-34.8c0-0.5-0.5-0.9-0.9-0.8C185.3,237,185,237.4,185,237.9z"/>
</g>
<path id="Fill-18_00000126311540061739339460000007140788691225949583_" class="st32" d="M57.6,165.5c-2.4-3-3.3-7.5-1.7-11.1
	c0.4-0.9,0.9-1.7,1.6-2.4c0.2-0.2,0.3-0.3,0.5-0.5c0.3-0.3,0.3-0.2,0.2-0.5c-0.1-0.5-0.6-1-0.7-1.5c-0.6-2-0.1-4.4,1.4-5.8
	c-5.8-3.3-9-10.2-7.7-16.7c0.6-3.2,2.3-6.3,4.7-8.5c0.6-0.5,1.2-1.1,1.8-1.5c0.3-0.2,0.6-0.4,0.9-0.6c0.4-0.3,0.5-0.9,0.6-1.5
	c0.6-2.1,1.2-4.2,1.8-6.3c0.6-1.9,1-4.1,2.3-5.7c1.1-1.4,3-2.4,4.7-1.8c0-2.7,1.9-5.1,4.4-6.2c0.6-0.3,1.3-0.4,2-0.5s1.4,0.2,2,0.2
	c0.4,0,0,0.3,0.4-0.2c0.1-0.2,0.2-0.4,0.3-0.6c0.2-0.4,0.4-0.8,0.6-1.2c0.5-1,1-1.9,1.4-2.9c1.7-3.3,3.4-6.6,5.6-9.6
	c2-2.8,4.6-4.8,8-5.6c3.3-0.8,6.8-0.6,10.2-0.6c3.5,0.1,7.1,0.2,10.6,0.8c3.4,0.6,6.7,1.7,9.6,3.6c1.5,0.9,2.9,2,4.6,2.4
	c1.8,0.4,3.7,0.3,5.5,0.2c3.4,0,6.3,1,8.3,3.8c0.8,1.2,1.4,2.6,1.7,4c0.3,1.9,1.4,3.6,2.7,5.1c0.1,0.1,0.1,0.1,0.2,0.2
	c1.1,1.4,2,2.3,3.9,1.8c1.7-0.4,3.2-1.1,4.9-1.4c1.7-0.4,3.4-0.5,5.1-0.4c3.3,0.2,6.3,1.5,8.5,4s3.7,5.6,5.2,8.6
	c1.6,3.3,3,7,2.4,10.7c-0.1,0.8-0.6,1.8-0.3,2.7c0.2,0.7,1,1.2,1.5,1.7c1.2,1.1,2.2,2.5,2.9,4c0.3,0.7,0.6,1.4,0.8,2.2
	c0.2,0.6,0.2,1.9,0.6,2.3c0.2,0.2,0.8,0.4,1.1,0.5c0.3,0.2,0.7,0.3,1,0.5c0.7,0.4,1.4,0.8,2.1,1.2c2.7,1.7,5.1,3.8,6.7,6.5
	c2.9,5.1,2.2,13.1-3.8,15.8c2.7,2.8,2.4,7.6,0,10.6c-0.6,0.8-1.3,1.4-2.2,1.9c-0.4,0.2-1,0.3-1.2,0.7c-0.2,0.5-0.3,1.1-0.6,1.6
	c-1,1.9-2.8,3.2-4.7,4.2c-2.1,1.1-4.4,1.7-6.7,2.2c-3.2,0.8-6.3,1.5-9.5,2.3c-6.4,1.5-12.8,2.9-19.2,3.9c-3.6,0.6-7.3,1.1-11,1.4
	c-1.7,0.2-5.7,0.3-5.6-2.3c-10.3,1.6-20.7,1.7-30.9-0.4c-4.9-1.1-9.8-2.5-14.6-4c-4.4-1.3-8.4-4.1-13-4.9S60.6,169.2,57.6,165.5"/>
<path id="Fill-55_00000005242143228805101210000004173865467814846613_" class="st8" d="M170.5,166.8c0.4,6.1-2.4,15.7-9.1,18.6
	c-9.1,3.9-8.2-8.2-7.4-12.6c0.7-4,2-8.1,4.9-11.2c1.3-1.3,2.9-2.5,4.9-2.6s4,1.1,5.1,2.6C169.9,163.1,170.3,164.9,170.5,166.8"/>
<path id="Fill-55_00000072974339206700017200000006766225408572348297_" class="st8" d="M71.7,168.1c0.1-1.9,0.5-3.7,1.6-5.3
	s3.1-2.7,5.1-2.6c1.9,0.1,3.6,1.3,4.9,2.6c2.9,3.1,4.2,7.2,4.9,11.2c0.8,4.4,1.7,16.5-7.4,12.6C74.1,183.8,71.3,174.2,71.7,168.1"/>
<path id="Shape_00000182492341058904447690000001897354426708010934_" class="st33" d="M141.6,230.6c-2.3,9.2-9.5,16.5-18.7,16.5
	H119c-9.2,0-17.1-7.3-19-16.5v-30.7c1.9-9.2,9.8-16,19-16h3.9c9.2,0,16.4,6.8,18.7,16V230.6z"/>
<path class="st8" d="M120.8,217.5c-19.2,0-34.7-19.2-34.7-59.2c0-27.7,7.4-43.9,34.7-43.9s34.7,17.1,34.7,43.9
	C155.5,198.3,140,217.5,120.8,217.5z"/>
<g>
	<path class="st22" d="M31.4,88.1L44,94.9 M37.2,71.6l11.6,11.6 M48.9,60l8.7,14.5"/>
</g>
<path class="st32" d="M80.5,151l4.2,14.3c1.4,4.7,2.1,9.5,2.1,14.4l-0.1,17.4l7.1-0.9l-5.1-20.9c-1.3-5.5-1.9-11.2-1.7-16.9
	c0,0-1.2-29.5,8.6-35.7C81.4,125.3,80.5,151,80.5,151 M162,151l-4.2,14.3c-1.4,4.7-2.1,9.5-2.1,14.4l0.1,17.4l-7.1-0.9l5.1-20.9
	c1.3-5.5,1.9-11.2,1.7-16.9c0,0,1.2-29.5-8.6-35.7C161.1,125.3,162,151,162,151"/>
<path class="st23" d="M138.7,168.5c1.3,0,2-1,2-2.9c0-2-0.7-2.9-2-2.9c-1.4,0-2,1-2,2.9C136.6,167.5,137.3,168.5,138.7,168.5z"/>
<path class="st23" d="M104.3,168.6c1.3,0,2-1,2-2.9s-0.7-2.9-2-2.9s-2,1-2,2.9S102.9,168.6,104.3,168.6z"/>
<path class="st15" d="M146.6,153.9c-3.6-0.2-10.3-1.1-17.5,0.9"/>
<path class="st15" d="M113.3,154.1c-3.8-0.3-11-2.3-18.5,0.4"/>
<g>
	<path class="st34" d="M164.6,157.8c0,0-1.1-2.9-5.5-1.8c-3.4,0.9-8.2,2.5-8.2,2.5"/>
	<g>
		<path class="st35" d="M103.5,158.9L103.5,158.9L103.5,158.9c3.6,0,7.1,0.4,10.5,1.2c0.3,2.6,0.2,7.3-1.9,9.9
			c-2.3,2.8-5.4,4.2-9.4,4.2c-0.7,0-1.4,0-2.1-0.1c-1.6-0.2-3.1-0.8-4.4-1.8s-2.2-2.3-2.7-3.8c-0.7-2.4-1.2-6.3-1.4-8.5
			C95.9,159.3,99.7,158.9,103.5,158.9 M103.5,156.9c-4.6,0-9.1,0.5-13.6,1.6c0,0,0.4,6.9,1.6,10.7c0.7,1.9,1.8,3.5,3.4,4.8
			c1.6,1.2,3.4,2,5.4,2.2c0.7,0.1,1.5,0.1,2.3,0.1c3.8,0,7.9-1.2,11-5c3.7-4.5,2.2-12.8,2.2-12.8c-4-1-8.1-1.6-12.2-1.6
			C103.6,156.9,103.6,156.9,103.5,156.9L103.5,156.9z"/>
	</g>
	<g>
		<path class="st35" d="M137.8,158.7c3.8,0,7.7,0.4,11.4,1.2c-0.2,2.2-0.6,6.1-1.4,8.5c-0.5,1.5-1.5,2.8-2.7,3.8
			c-1.3,1-2.8,1.6-4.4,1.8c-0.7,0.1-1.4,0.1-2,0.1c-4,0-7.1-1.4-9.4-4.2c-2.1-2.6-2.2-7.3-1.9-9.9c3.4-0.8,6.9-1.2,10.4-1.2
			L137.8,158.7 M137.8,156.7h-0.1c-4.1,0-8.2,0.6-12.2,1.6c0,0-1.5,8.3,2.2,12.8c3,3.8,7.1,5,11,5c0.8,0,1.5-0.1,2.3-0.1
			c2-0.2,3.9-1,5.4-2.2c1.6-1.2,2.7-2.9,3.4-4.8c1.2-3.8,1.6-10.7,1.6-10.7C146.9,157.2,142.3,156.7,137.8,156.7L137.8,156.7z"/>
	</g>
	<path class="st34" d="M125.5,158.3c-2.8-0.7-8-0.7-9.7,0.2"/>
	<path class="st34" d="M90,158.5c-3.1-1.3-9.5-4.5-10.8-1.8"/>
</g>
<path class="st15" d="M122.7,161.5c0.2,7.2,1.8,9.6,3.7,13c0.4,0.7,0.7,1.5,0.9,2.3c0.2,0.5,0.2,1.1,0,1.6c-0.1,0.5-0.4,1-0.7,1.4
	c-0.4,0.4-0.8,0.7-1.3,0.9s-1.1,0.2-1.6,0.1l-5.5-0.9"/>
<path class="st15" d="M127.9,192.3c-5.4,4.7-11.2,3-13.6-0.1"/>
<path id="Combined-Shape_00000020375323572864958350000000791644359764236714_" class="st32" d="M139.7,123.3
	c0,4.3-19.7,9.9-26.2,6.2c-3.6,2.5-8.7,3.1-12.7,1.2c-0.7,9.9-11.9,9.3-20.3,4.5c1.4-2,2.6,1.5,0,0c2.1-3.1,2.2-6.4,4.4-8.6
	c1.4-1.4,7.3-3.8,9.4-4.4c1.2-0.4,2.4-0.6,3.5-0.8c-1.1-0.4-2-0.7-2.6-0.7c0.7-0.7,5.2,0.5,0,0c13.4-13.6,35.3-18.3,42.4-5.4
	c0-0.1,0.1-0.1,0.1-0.2c3.8,2,7.5,4.2,11.3,6.1c1.4,0.7,2.7,1.5,3.8,2.7c1,1.1,1.7,2.7,1.6,4.2c0,0.4-0.1,0.8-0.4,1.1
	c-0.3,0.3-0.7,0.4-1,0.5c-2.3,0.5-4.8,0-6.7-1.4C144.5,127,141.7,125.2,139.7,123.3z"/>
</svg>
