<svg xmlns="http://www.w3.org/2000/svg" viewBox="0 0 1989 566.47"><defs><style>.cls-1{fill:#f2f9fe;}</style></defs><g id="Layer_2" data-name="Layer 2"><g id="Layer_1-2" data-name="Layer 1"><g id="Group_57" data-name="Group 57"><path id="Path_2006" data-name="Path 2006" class="cls-1" d="M231.17,390.17l-38,41.49-50.71-63,33.15-27.23Z"/><path id="Path_2007" data-name="Path 2007" class="cls-1" d="M117.9,376.67C65.78,369.62,43.22,329.18,43.22,269c0-78,46.49-92.55,82.52-92.55,51.36,0,86.3,38,86.3,108.21a123.15,123.15,0,0,1-8.12,48l25.71,22a121.29,121.29,0,0,0,26.24-81.59c0-71.72-48.55-117.14-126.52-117.14C35.39,155.92,0,225.14,0,278.7c0,55.44,36.34,122.77,126.22,122.77a43.46,43.46,0,0,0,6.34-.5Z"/><g id="Group_10" data-name="Group 10"><path id="Path_2008" data-name="Path 2008" class="cls-1" d="M311.78,275.91c0-40,.3-47.41-.31-55.78-.62-9.3-3.1-11.77-11.78-14.25a48.69,48.69,0,0,0-10.57-.93q-4.65,0-4.65-2.79c0-1.86,1.86-2.48,5.89-2.48,14.56,0,32.85.61,40.9.61,6.82,0,25.1-.61,35-.61,4,0,5.88.61,5.88,2.48s-1.55,2.79-4.34,2.79a37.67,37.67,0,0,0-8.06.93c-7.12,1.24-9.3,5-9.91,14.25-.63,8.37-.63,15.85-.63,55.78v36.87c0,38.42,7.4,53.3,20.76,63.83a52.48,52.48,0,0,0,34.4,10.57,51.89,51.89,0,0,0,36.55-13.94c15.19-14.25,15.85-37.18,15.85-64.14V275.94c0-40-.3-47.41-.62-55.78-.62-9-2.79-11.77-11.46-14.25a47.23,47.23,0,0,0-9.92-.93c-3.1,0-4.64-.93-4.64-2.79s1.85-2.48,5.57-2.48c14,0,32.23.61,32.54.61,3.09,0,21.37-.61,31.92-.61,3.71,0,5.57.61,5.57,2.48S504.19,205,501.1,205a37.74,37.74,0,0,0-8.06.93c-7.39,1.24-9.29,5-9.92,14.25-.3,8.37-.62,15.85-.62,55.78v28.19c0,29.44-3.1,60.43-26,79.33a85,85,0,0,1-57.64,18.9c-14.25,0-42.45-.62-62.29-18-13.93-12.09-24.78-31.6-24.78-69.74Z"/><path id="Path_2009" data-name="Path 2009" class="cls-1" d="M566.77,332.63c-1.55,0-1.86.3-2.48,1.86l-14.56,35.32a47.81,47.81,0,0,0-4,16.11c0,4.65,2.49,7.4,10.86,7.4h4c3.4,0,4,1.23,4,2.79,0,2.16-1.56,2.79-4.35,2.79-9,0-21.69-.93-30.36-.93-2.79,0-17.35.93-31.6.93-3.42,0-5-.63-5-2.79,0-1.56.93-2.79,3.1-2.79,2.48,0,5.57-.32,8.05-.32,12.39-1.86,17-9.91,22.62-23.24L598.37,204c3.09-7.4,5.28-10.57,8-10.57,4,0,5.28,2.48,8.06,8.37,6.51,14.57,52.06,122.39,69.41,162.36,10.56,23.86,18.28,27.28,23.24,28.21a67.43,67.43,0,0,0,10.23.93c2.48,0,3.72.92,3.72,2.78,0,2.17-1.56,2.79-11.77,2.79-9.61,0-29.44,0-52.37-.62-5-.31-8.06-.31-8.06-2.17,0-1.55.62-2.48,3.41-2.78a4.16,4.16,0,0,0,2.77-5.17,3.74,3.74,0,0,0-.29-.72l-21.07-53a2.6,2.6,0,0,0-2.79-1.86ZM625,318.07c1.24,0,1.56-.63,1.24-1.56l-25.72-66.93c-.3-.93-.62-2.48-1.23-2.48-.93,0-1.24,1.55-1.56,2.48l-26.34,66.6c-.62,1.23,0,1.86.93,1.86Z"/><path id="Path_2010" data-name="Path 2010" class="cls-1" d="M767.85,363c.63,20.45,4,26.65,9.3,28.53a46.11,46.11,0,0,0,14.25,1.86c3.1,0,4.65,1.24,4.65,2.79,0,2.17-2.48,2.79-6.19,2.79-17.67,0-30.37-.93-35.32-.93-2.48,0-15.49.93-29.44.93-3.72,0-6.2-.32-6.2-2.79,0-1.55,1.86-2.79,4.34-2.79a56.17,56.17,0,0,0,12.4-1.24c7.13-1.86,8.06-9,8.36-31.92L746.49,204c0-5.28,1.86-9,4.65-9,3.4,0,7.13,4,11.77,8.67,3.4,3.42,44.31,45.25,84,84,18.6,18.28,54.85,55.46,58.88,59.17H907l-2.79-117.13c-.3-16.12-2.79-20.76-9.29-23.25A45.71,45.71,0,0,0,880.64,205c-3.4,0-4.33-1.24-4.33-2.79,0-2.17,2.79-2.48,6.81-2.48,14.26,0,28.83.61,34.71.61,3.1,0,13.33-.61,26.65-.61,3.72,0,6.19.3,6.19,2.48,0,1.55-1.54,2.79-4.65,2.79a27.37,27.37,0,0,0-8.35.93c-7.4,2.16-9.61,6.81-9.93,21.69l-3.09,166.09c0,5.88-2.17,8.36-4.34,8.36a16.14,16.14,0,0,1-11.16-5.58c-17-15.84-51.13-48.33-79.64-75.91C799.77,292,771,260.1,765.69,255.45h-.93Z"/><path id="Path_2011" data-name="Path 2011" class="cls-1" d="M1001.86,395.08c-5.11-2.2-6.21-3.66-6.21-10.56,0-16.84,1.46-36.21,1.83-41.34,0-4.75,1.46-8.05,4-8.05,2.93,0,3.3,2.93,3.3,5.13a58,58,0,0,0,2.93,16.09c6.95,23,31.09,30.72,51.21,30.72,27.8,0,44.63-17.56,44.63-39.5,0-13.54-3.3-27.07-31.82-43.9l-18.66-11c-38-22.32-50.48-43.16-50.48-70.6,0-38,36.58-62.55,81.21-62.55a191.26,191.26,0,0,1,45.73,5.12c2.93.73,4.39,1.83,4.39,4,0,4-1.06,12.8-1.06,37.31,0,6.58-1.46,9.87-4,9.87-2.19,0-3.29-1.82-3.29-5.48a35.22,35.22,0,0,0-8.45-20.49,43.28,43.28,0,0,0-35.85-14.63c-23,0-43.91,12.08-43.91,33.29,0,13.91,5.13,24.87,34,41l13.16,7.31c42.43,23.41,55.61,47.19,55.61,75.35A66.48,66.48,0,0,1,1108,390.31a93.83,93.83,0,0,1-53.77,12.8A136.83,136.83,0,0,1,1001.86,395.08Z"/><path id="Path_2012" data-name="Path 2012" class="cls-1" d="M1208.91,275.91c0-40,0-47.41-.31-55.78-.63-9-3.41-12.07-9.3-13.94a34.62,34.62,0,0,0-9.92-1.24c-2.79,0-4.34-.61-4.34-3.1,0-1.55,2.17-2.16,6.51-2.16,10.23,0,28.82.61,36.56.61,6.82,0,24.48-.61,35-.61,3.4,0,5.57.61,5.57,2.16,0,2.49-1.54,3.1-4.33,3.1a37.74,37.74,0,0,0-8.06.93c-7.4,1.24-9.6,5-10.23,14.25-.62,8.37-.62,15.85-.62,55.78V322.4c0,25.36,0,46.49,1.24,57.62.93,7.13,2.79,11.16,10.85,12.41a101.58,101.58,0,0,0,13.94.93c3.1,0,4.34,1.55,4.34,2.79,0,1.86-2.17,2.79-5.29,2.79-18,0-36.57-.93-44-.93-6.21,0-24.79.93-35.64.93-3.4,0-5.28-.93-5.28-2.79,0-1.24.93-2.79,4.33-2.79a40.77,40.77,0,0,0,9.6-.93c5.58-1.24,7.12-5,8-12.68,1.24-10.85,1.24-31.92,1.24-57.32Z"/><path id="Path_2013" data-name="Path 2013" class="cls-1" d="M1498.29,381.26c0,7.12,0,7.4-3.4,9.3a164.19,164.19,0,0,1-66.62,11.77c-66.92,0-126.11-30.37-126.11-103.18A97.48,97.48,0,0,1,1349.87,213a136.56,136.56,0,0,1,73.43-17,310.65,310.65,0,0,1,48.34,4.33,213.8,213.8,0,0,0,21.68,2.79c3.11.32,3.72,1.24,3.72,3.1a359.06,359.06,0,0,0-1.86,43.38c0,4-1.55,5.88-3.72,5.88-1.86,0-2.48-1.23-2.78-3.4a35.07,35.07,0,0,0-9.3-21.69,84.54,84.54,0,0,0-59.17-20.14,76.55,76.55,0,0,0-52.68,15.49c-15.19,12.4-25.1,31.91-25.1,64.15,0,56.69,36.56,97.91,94.82,97.91a44.61,44.61,0,0,0,19.21-2.79,8.69,8.69,0,0,0,5.28-9.3V351.52c0-13,0-22.93-.3-31-.32-9-3.11-11.77-11.77-14.25a48.12,48.12,0,0,0-10.57-.93c-2.48,0-4.33-1.24-4.33-2.79,0-2.17,2.16-2.49,5.88-2.49,14.26,0,33.81.62,41.83.62,8.68,0,22.93-.62,31.91-.62,3.72,0,5.58.31,5.58,2.49a3.18,3.18,0,0,1-3.41,2.79,36.91,36.91,0,0,0-7.4.93c-7.39,1.23-10.23,5-10.56,14.25-.31,8.06-.31,18.59-.31,31.6Z"/><path id="Path_2014" data-name="Path 2014" class="cls-1" d="M1715.79,285.51c.62,0,1.54-.3,1.54-1.86v-5.57c0-40-.31-49.58-.62-57.95-.63-9-3.11-11.77-11.77-14.25a49.32,49.32,0,0,0-10.57-.93q-4.65,0-4.65-2.79c0-1.86,1.86-2.48,5.89-2.48,14.56,0,33.81.61,40.9.61,6.51,0,24.48-.61,35-.61,4,0,5.89.61,5.89,2.48s-1.86,2.79-5,2.79a45.45,45.45,0,0,0-8,.93c-7.12,1.24-9.3,5-9.92,14.25-.62,8.37-.62,15.85-.62,55.78V322.4c0,24.16,0,44.93,1.23,56.39.93,7.4,2.48,12.39,10.85,13.64a98.57,98.57,0,0,0,14,.93c2.79,0,4.33,1.55,4.33,2.79,0,1.86-2.16,2.79-5.58,2.79-17.66,0-35.64-.93-43.06-.93-6.21,0-25.42.93-35.93.93-3.72,0-5.88-.93-5.88-2.79,0-1.24,1.23-2.79,4.34-2.79a41.23,41.23,0,0,0,9.91-.93c5.58-1.24,7.12-6.2,8-13.95,1.24-11.15,1.24-31.29,1.24-55.47V302.87a1.66,1.66,0,0,0-1.54-1.55H1612.89c-.93,0-1.86.32-1.86,1.55V323c0,24.18.31,44.32,1.55,55.78.93,7.4,2.48,12.39,10.56,13.64a101.83,101.83,0,0,0,13.95.93c3.1,0,4.33,1.55,4.33,2.79,0,1.86-2.11,2.79-5.58,2.79-17.65,0-36.55-.93-44.31-.93-6.2,0-24.16.93-35,.93-3.41,0-5.29-.93-5.29-2.79,0-1.24.93-2.79,4.33-2.79a40.8,40.8,0,0,0,9.61-.93c5.58-1.24,7.12-6.2,8-13.95,1.24-11.15,1.24-31.92,1.24-56.08V275.91c0-40,0-47.41-.32-55.78-.61-9-3.1-11.77-11.77-14.25a50,50,0,0,0-10.85-.93c-2.79,0-4.65-.93-4.65-2.79s2.18-2.48,5.88-2.48c14.58,0,32.54.61,40,.61,6.5,0,25.35-.61,36.25-.61,3.72,0,5.58.61,5.58,2.48s-1.55,2.79-5,2.79a40.23,40.23,0,0,0-7.74.93c-7.4,1.24-9.61,5-10.23,14.25-.63,8.37-.63,18-.63,57.95v5.57a1.64,1.64,0,0,0,1.36,1.86,1.4,1.4,0,0,0,.5,0Z"/><path id="Path_2015" data-name="Path 2015" class="cls-1" d="M1879.37,215.8l-40.6.93c-15.84.32-22.3,2.18-26.33,8.06a30.84,30.84,0,0,0-4.64,9c-.63,2.17-1.24,3.41-3.1,3.41s-2.48-1.56-2.48-4.34c0-4.34,5.28-29.75,5.88-31.92.63-3.4,1.54-5,3.1-5,2.16,0,5,2.17,11.77,3.09a255.93,255.93,0,0,0,27.27,1.24h110.61a120.48,120.48,0,0,0,18.59-1.24c4.34-.62,6.51-1.23,7.39-1.23,1.86,0,2.17,1.54,2.17,5.58,0,5.58-.62,25.09-.62,31.91-.32,2.79-.93,4.34-2.49,4.34-2.16,0-2.79-1.24-3.09-5.28l-.32-2.79c-.61-6.82-7.74-14.88-32.23-15.19l-34.39-.62v106.6c0,24.16.31,44.92,1.56,56.39.93,7.39,2.48,12.39,10.56,13.64a101.62,101.62,0,0,0,14,.93c3.09,0,4.34,1.55,4.34,2.79,0,1.86-2.17,2.79-5.28,2.79-18,0-36.25-.93-44-.93-6.2,0-24.79.93-35.64.93-3.41,0-5.28-.93-5.28-2.79,0-1.24.93-2.79,4.34-2.79a38.8,38.8,0,0,0,9.61-.93c5.58-1.24,7.12-6.2,8-13.95,1.24-11.16,1.24-31.92,1.24-56.08Z"/></g><g id="bottom"><g id="Group_11" data-name="Group 11"><path id="Path_2016" data-name="Path 2016" class="cls-1" d="M264.64,482.51l-20.78-12.07c-6.87-4.13-13.52-8.68-20.29-13Q241.2,435.88,258.38,414c4.7,3,9.27,6.14,14.08,9L287,431.39C279.38,448.33,271.92,465.43,264.64,482.51Z"/></g><g id="Group_12" data-name="Group 12"><path id="Path_2017" data-name="Path 2017" class="cls-1" d="M335.25,515.51l-22-9.17c-7.29-3.17-14.47-6.7-21.71-10q14.42-23.81,28.4-47.82c5.11,2.34,10.15,4.79,15.3,7l15.6,6.43Q342.79,488.63,335.25,515.51Z"/></g><g id="Group_13" data-name="Group 13"><path id="Path_2018" data-name="Path 2018" class="cls-1" d="M408.88,539.65,386,533.17l-22.62-7.34q11.4-25.35,22.43-50.9L402,480.11c5.42,1.61,10.89,3.06,16.33,4.6Q413.37,512.13,408.88,539.65Z"/></g><g id="Group_14" data-name="Group 14"><path id="Path_2019" data-name="Path 2019" class="cls-1" d="M484.34,555.81c-15.59-2.41-31-5.63-46.49-8.95q8.59-26.36,16.84-53c11.14,2.17,22.19,4.67,33.44,6.34Q486,528,484.34,555.81Z"/></g><g id="Group_15" data-name="Group 15"><path id="Path_2020" data-name="Path 2020" class="cls-1" d="M560.82,564.56c-3.93-.27-7.86-.45-11.78-.79l-11.76-1.14c-7.84-.76-15.69-1.44-23.49-2.57q6-27.12,11.62-54.3c5.63.77,11.31,1.13,17,1.71s11.3,1.21,17,1.45Q559.9,536.73,560.82,564.56Z"/></g><g id="Group_16" data-name="Group 16"><path id="Path_2021" data-name="Path 2021" class="cls-1" d="M637.71,566.27c-15.73.21-31.47.4-47.21-.24q3.43-27.6,6.51-55.19c11.38.48,22.76.11,34.15.11Q634.27,538.66,637.71,566.27Z"/></g><g id="Group_17" data-name="Group 17"><path id="Path_2022" data-name="Path 2022" class="cls-1" d="M714.45,560.86,691,563.31,667.4,565q.9-27.81,1.46-55.59l17-1.26,17-1.82Q708.46,533.62,714.45,560.86Z"/></g><g id="Group_18" data-name="Group 18"><path id="Path_2023" data-name="Path 2023" class="cls-1" d="M790.41,548.34C782.7,550,775,551.7,767.17,553s-15.52,2.86-23.31,3.95c-1.06-18.49-2.32-36.9-3.66-55.41l16.78-3,8.39-1.5,8.32-1.8Q781.88,521.81,790.41,548.34Z"/></g><g id="Group_19" data-name="Group 19"><path id="Path_2024" data-name="Path 2024" class="cls-1" d="M865,528.5c-7.48,2.62-15.12,4.65-22.69,6.89l-11.39,3.29-11.49,2.89q-4.32-27.48-9-54.8c5.53-1.3,10.94-3,16.38-4.56s10.89-3.17,16.28-4.85Q853.83,503,865,528.5Z"/></g><g id="Group_20" data-name="Group 20"><path id="Path_2025" data-name="Path 2025" class="cls-1" d="M937.32,500.85c-7.26,3.17-14.6,6.21-21.92,9.33l-5.48,2.29-5.56,2.11-11.12,4.23q-7.17-26.86-14.72-53.59c10.65-3.82,21-8.46,31.34-12.81C918.87,468.58,928.05,484.82,937.32,500.85Z"/></g><g id="Group_21" data-name="Group 21"><path id="Path_2026" data-name="Path 2026" class="cls-1" d="M1006.2,464.67l-20.68,12.06-21.13,11.14Q954.18,462,943.54,436.3l14.9-7.89,14.49-8.53Q989.3,442.41,1006.2,464.67Z"/></g></g><g id="top"><g id="Group_22" data-name="Group 22"><path id="Path_2027" data-name="Path 2027" class="cls-1" d="M1943.26,80.55l20.91,11.87c6.91,4.07,13.6,8.55,20.41,12.82q-17.41,21.71-34.38,43.72c-4.73-2.93-9.34-6-14.17-8.82l-14.57-8.24Q1932.61,106.34,1943.26,80.55Z"/></g><g id="Group_23" data-name="Group 23"><path id="Path_2028" data-name="Path 2028" class="cls-1" d="M1872.36,48.24l22.14,9c7.32,3.17,14.54,6.56,21.81,9.83q-14.19,23.94-27.93,48.1c-5.12-2.28-10.2-4.69-15.36-6.87L1857.36,102Q1865.1,75.19,1872.36,48.24Z"/></g><g id="Group_24" data-name="Group 24"><path id="Path_2029" data-name="Path 2029" class="cls-1" d="M1798.53,24.78l22.91,6.27,22.69,7.11Q1833,63.65,1822.21,89.28l-16.18-5c-5.43-1.57-10.91-3-16.38-4.44Q1794.3,52.4,1798.53,24.78Z"/></g><g id="Group_25" data-name="Group 25"><path id="Path_2030" data-name="Path 2030" class="cls-1" d="M1722.91,9.41c15.62,2.26,31.12,5.28,46.58,8.45q-8.33,26.42-16.32,53.11c-11.16-2.06-22.24-4.45-33.5-6Q1721.49,37.25,1722.91,9.41Z"/></g><g id="Group_26" data-name="Group 26"><path id="Path_2031" data-name="Path 2031" class="cls-1" d="M1646.33,1.4c3.93.23,7.87.37,11.79.67l11.77,1.06c7.85.69,15.7,1.29,23.52,2.35q-5.7,27.18-11.05,54.4c-5.64-.71-11.33-1.06-17-1.54s-11.32-1.06-17-1.28Q1647.52,29.23,1646.33,1.4Z"/></g><g id="Group_27" data-name="Group 27"><path id="Path_2032" data-name="Path 2032" class="cls-1" d="M1569.43.46c15.73-.36,31.48-.71,47.22-.21q-3.17,27.62-6,55.23c-11.38-.36-22.76.12-34.15.24Q1573.16,28,1569.43.46Z"/></g><g id="Group_28" data-name="Group 28"><path id="Path_2033" data-name="Path 2033" class="cls-1" d="M1492.76,6.61l23.47-2.69L1539.76,2q-.63,27.81-.92,55.61l-17,1.44-16.9,2Q1499,33.79,1492.76,6.61Z"/></g><g id="Group_29" data-name="Group 29"><path id="Path_2034" data-name="Path 2034" class="cls-1" d="M1416.9,19.86c7.7-1.71,15.38-3.51,23.15-4.84s15.48-3,23.25-4.23c1.28,18.48,2.67,36.88,4.22,55.37l-16.75,3.17-8.36,1.58-8.31,1.88Q1425.7,46.3,1416.9,19.86Z"/></g><g id="Group_30" data-name="Group 30"><path id="Path_2035" data-name="Path 2035" class="cls-1" d="M1342.54,40.43c7.45-2.69,15.07-4.8,22.62-7.11l11.36-3.4,11.45-3q4.6,27.4,9.51,54.71c-5.51,1.36-10.9,3.09-16.32,4.73s-10.88,3.17-16.24,5Q1354,65.83,1342.54,40.43Z"/></g><g id="Group_31" data-name="Group 31"><path id="Path_2036" data-name="Path 2036" class="cls-1" d="M1270.48,68.76c7.23-3.29,14.55-6.34,21.82-9.51l5.47-2.35,5.54-2.11,11.08-4.29q7.39,26.79,15.24,53.44c-10.57,3.92-20.87,8.62-31.21,13.11C1289.24,100.88,1279.9,84.72,1270.48,68.76Z"/></g><g id="Group_32" data-name="Group 32"><path id="Path_2037" data-name="Path 2037" class="cls-1" d="M1202,105.63l20.55-12.28,21-11.34q10.47,25.77,21.34,51.36l-14.79,8-14.41,8.67Q1219,127.73,1202,105.63Z"/></g></g></g></g></g></svg>